<mxfile host="app.diagrams.net" modified="2020-08-28T00:05:07.387Z" agent="5.0 (Windows NT 10.0; Win64; x64) AppleWebKit/537.36 (KHTML, like Gecko) Chrome/84.0.4147.135 Safari/537.36" etag="E3G3_dstXMDgJ6rHA85m" version="13.6.5" type="github">
  <diagram id="RXfJPEQLSkUn8Qb5hu7o" name="Page-1">
    <mxGraphModel dx="460" dy="752" grid="1" gridSize="10" guides="1" tooltips="1" connect="1" arrows="1" fold="1" page="1" pageScale="1" pageWidth="850" pageHeight="1100" math="0" shadow="0">
      <root>
        <mxCell id="0" />
        <mxCell id="1" parent="0" />
        <mxCell id="eyukH-fFZWccQMMR9wJW-15" value="" style="endArrow=diamondThin;endFill=1;endSize=24;html=1;exitX=0.5;exitY=0;exitDx=0;exitDy=0;entryX=1;entryY=0.5;entryDx=0;entryDy=0;rounded=0;" edge="1" parent="1" source="eyukH-fFZWccQMMR9wJW-9" target="eyukH-fFZWccQMMR9wJW-2">
          <mxGeometry width="160" relative="1" as="geometry">
            <mxPoint x="780" y="650" as="sourcePoint" />
            <mxPoint x="940" y="650" as="targetPoint" />
            <Array as="points">
              <mxPoint x="1020" y="299" />
            </Array>
          </mxGeometry>
        </mxCell>
        <mxCell id="eyukH-fFZWccQMMR9wJW-16" value="GameData" style="swimlane;fontStyle=1;align=center;verticalAlign=top;childLayout=stackLayout;horizontal=1;startSize=26;horizontalStack=0;resizeParent=1;resizeParentMax=0;resizeLast=0;collapsible=1;marginBottom=0;" vertex="1" parent="1">
          <mxGeometry x="100" y="80" width="270" height="170" as="geometry" />
        </mxCell>
        <mxCell id="eyukH-fFZWccQMMR9wJW-17" value="- store: Dictionary&lt;string, LevelData&gt;&#xa;" style="text;strokeColor=none;fillColor=none;align=left;verticalAlign=top;spacingLeft=4;spacingRight=4;overflow=hidden;rotatable=0;points=[[0,0.5],[1,0.5]];portConstraint=eastwest;" vertex="1" parent="eyukH-fFZWccQMMR9wJW-16">
          <mxGeometry y="26" width="270" height="26" as="geometry" />
        </mxCell>
        <mxCell id="eyukH-fFZWccQMMR9wJW-18" value="" style="line;strokeWidth=1;fillColor=none;align=left;verticalAlign=middle;spacingTop=-1;spacingLeft=3;spacingRight=3;rotatable=0;labelPosition=right;points=[];portConstraint=eastwest;" vertex="1" parent="eyukH-fFZWccQMMR9wJW-16">
          <mxGeometry y="52" width="270" height="8" as="geometry" />
        </mxCell>
        <mxCell id="eyukH-fFZWccQMMR9wJW-19" value="+ set&lt;T&gt;(level: string, key: string, value: T)&#xa;+ get&lt;T&gt;(level: string, key: string)&#xa;+ save()" style="text;strokeColor=none;fillColor=none;align=left;verticalAlign=top;spacingLeft=4;spacingRight=4;overflow=hidden;rotatable=0;points=[[0,0.5],[1,0.5]];portConstraint=eastwest;" vertex="1" parent="eyukH-fFZWccQMMR9wJW-16">
          <mxGeometry y="60" width="270" height="110" as="geometry" />
        </mxCell>
        <mxCell id="eyukH-fFZWccQMMR9wJW-21" value="" style="endArrow=diamondThin;endFill=1;endSize=24;html=1;exitX=0.5;exitY=0;exitDx=0;exitDy=0;entryX=1;entryY=0.5;entryDx=0;entryDy=0;rounded=0;" edge="1" parent="1" source="eyukH-fFZWccQMMR9wJW-1" target="eyukH-fFZWccQMMR9wJW-17">
          <mxGeometry width="160" relative="1" as="geometry">
            <mxPoint x="452.5" y="221" as="sourcePoint" />
            <mxPoint x="290" y="130" as="targetPoint" />
            <Array as="points">
              <mxPoint x="580" y="119" />
            </Array>
          </mxGeometry>
        </mxCell>
        <mxCell id="eyukH-fFZWccQMMR9wJW-1" value="LevelData" style="swimlane;fontStyle=1;align=center;verticalAlign=top;childLayout=stackLayout;horizontal=1;startSize=26;horizontalStack=0;resizeParent=1;resizeParentMax=0;resizeLast=0;collapsible=1;marginBottom=0;" vertex="1" parent="1">
          <mxGeometry x="400" y="260" width="360" height="130" as="geometry" />
        </mxCell>
        <mxCell id="eyukH-fFZWccQMMR9wJW-2" value="- store: Dictionary&lt;Type, DataStore&gt;" style="text;strokeColor=none;fillColor=none;align=left;verticalAlign=top;spacingLeft=4;spacingRight=4;overflow=hidden;rotatable=0;points=[[0,0.5],[1,0.5]];portConstraint=eastwest;" vertex="1" parent="eyukH-fFZWccQMMR9wJW-1">
          <mxGeometry y="26" width="360" height="26" as="geometry" />
        </mxCell>
        <mxCell id="eyukH-fFZWccQMMR9wJW-3" value="" style="line;strokeWidth=1;fillColor=none;align=left;verticalAlign=middle;spacingTop=-1;spacingLeft=3;spacingRight=3;rotatable=0;labelPosition=right;points=[];portConstraint=eastwest;" vertex="1" parent="eyukH-fFZWccQMMR9wJW-1">
          <mxGeometry y="52" width="360" height="8" as="geometry" />
        </mxCell>
        <mxCell id="eyukH-fFZWccQMMR9wJW-4" value="+ set&lt;T&gt;(key: string, value: T)&#xa;+ get&lt;T&gt;(key: string): T&#xa;+ save(): bool&#xa;+ load(): bool" style="text;strokeColor=none;fillColor=none;align=left;verticalAlign=top;spacingLeft=4;spacingRight=4;overflow=hidden;rotatable=0;points=[[0,0.5],[1,0.5]];portConstraint=eastwest;" vertex="1" parent="eyukH-fFZWccQMMR9wJW-1">
          <mxGeometry y="60" width="360" height="70" as="geometry" />
        </mxCell>
        <mxCell id="eyukH-fFZWccQMMR9wJW-9" value="DataStore&lt;T&gt;" style="swimlane;fontStyle=1;align=center;verticalAlign=top;childLayout=stackLayout;horizontal=1;startSize=26;horizontalStack=0;resizeParent=1;resizeParentMax=0;resizeLast=0;collapsible=1;marginBottom=0;" vertex="1" parent="1">
          <mxGeometry x="920" y="390" width="200" height="130" as="geometry" />
        </mxCell>
        <mxCell id="eyukH-fFZWccQMMR9wJW-10" value="- store: Dictionary&lt;string, T&gt;" style="text;strokeColor=none;fillColor=none;align=left;verticalAlign=top;spacingLeft=4;spacingRight=4;overflow=hidden;rotatable=0;points=[[0,0.5],[1,0.5]];portConstraint=eastwest;" vertex="1" parent="eyukH-fFZWccQMMR9wJW-9">
          <mxGeometry y="26" width="200" height="26" as="geometry" />
        </mxCell>
        <mxCell id="eyukH-fFZWccQMMR9wJW-11" value="" style="line;strokeWidth=1;fillColor=none;align=left;verticalAlign=middle;spacingTop=-1;spacingLeft=3;spacingRight=3;rotatable=0;labelPosition=right;points=[];portConstraint=eastwest;" vertex="1" parent="eyukH-fFZWccQMMR9wJW-9">
          <mxGeometry y="52" width="200" height="8" as="geometry" />
        </mxCell>
        <mxCell id="eyukH-fFZWccQMMR9wJW-12" value="+ set(key: string, value: T): void&#xa;+ get(key: string): T&#xa;+ save(path: string): bool&#xa;+ load(path: string): bool&#xa;" style="text;strokeColor=none;fillColor=none;align=left;verticalAlign=top;spacingLeft=4;spacingRight=4;overflow=hidden;rotatable=0;points=[[0,0.5],[1,0.5]];portConstraint=eastwest;" vertex="1" parent="eyukH-fFZWccQMMR9wJW-9">
          <mxGeometry y="60" width="200" height="70" as="geometry" />
        </mxCell>
        <mxCell id="eyukH-fFZWccQMMR9wJW-22" value="DictEntry&lt;K, V&gt;" style="swimlane;fontStyle=0;childLayout=stackLayout;horizontal=1;startSize=26;fillColor=none;horizontalStack=0;resizeParent=1;resizeParentMax=0;resizeLast=0;collapsible=1;marginBottom=0;" vertex="1" parent="1">
          <mxGeometry x="960" y="580" width="120" height="78" as="geometry" />
        </mxCell>
        <mxCell id="eyukH-fFZWccQMMR9wJW-23" value="+ Key: K" style="text;strokeColor=none;fillColor=none;align=left;verticalAlign=top;spacingLeft=4;spacingRight=4;overflow=hidden;rotatable=0;points=[[0,0.5],[1,0.5]];portConstraint=eastwest;" vertex="1" parent="eyukH-fFZWccQMMR9wJW-22">
          <mxGeometry y="26" width="120" height="26" as="geometry" />
        </mxCell>
        <mxCell id="eyukH-fFZWccQMMR9wJW-24" value="+ Value: V" style="text;strokeColor=none;fillColor=none;align=left;verticalAlign=top;spacingLeft=4;spacingRight=4;overflow=hidden;rotatable=0;points=[[0,0.5],[1,0.5]];portConstraint=eastwest;" vertex="1" parent="eyukH-fFZWccQMMR9wJW-22">
          <mxGeometry y="52" width="120" height="26" as="geometry" />
        </mxCell>
      </root>
    </mxGraphModel>
  </diagram>
</mxfile>
